# xmcd
#
# Track frame offsets:
#	150
#	21806
#	60061
#	95234
#	124723
#	161510
#	192429
#	235115
#
# Disc length: 4051 seconds
#
# Revision: 0
# Processed by: cddbd v1.5.2PL0 Copyright (c) Steve Scherf et al.
# Submitted via: audiograbber 1.83.01
#
DISCID=5e0fd108
DTITLE=Grateful Dead - 94-07-13 Franklin County Field, Highgate VT
DYEAR=1900
DGENRE=
TTITLE0=Let The Good Times Roll
TTITLE1=Jack Straw
TTITLE2=Althea
TTITLE3=Queen Jane Approximately
TTITLE4=Loser
TTITLE5=All Over Now
TTITLE6=Tennessee Jed
TTITLE7=Let It Grow
EXTD=
EXTT0=
EXTT1=
EXTT2=
EXTT3=
EXTT4=
EXTT5=
EXTT6=
EXTT7=
PLAYORDER=
